<?xml version="1.0" encoding="UTF-8"?>
<svg xmlns="http://www.w3.org/2000/svg" xmlns:xlink="http://www.w3.org/1999/xlink" width="32px" height="32px" viewBox="0 0 32 32" version="1.1">
<defs>
<clipPath id="clip1">
  <path d="M 32 6.25 L 32 25.75 C 32 29.203125 29.203125 32 25.75 32 L 6.25 32 C 2.796875 32 0 29.203125 0 25.75 L 0 6.25 C 0 2.796875 2.796875 0 6.25 0 L 25.75 0 C 29.203125 0 32 2.796875 32 6.25 Z M 32 6.25 "/>
</clipPath>
<clipPath id="clip2">
  <path d="M 32 6.25 L 32 25.75 C 32 29.203125 29.203125 32 25.75 32 L 6.25 32 C 2.796875 32 0 29.203125 0 25.75 L 0 6.25 C 0 2.796875 2.796875 0 6.25 0 L 25.75 0 C 29.203125 0 32 2.796875 32 6.25 Z M 32 6.25 "/>
</clipPath>
</defs>
<g id="surface1">
<g clip-path="url(#clip1)" clip-rule="nonzero">
<g clip-path="url(#clip2)" clip-rule="nonzero">
<rect x="0" y="0" width="32" height="32" style="fill:rgb(0%,0%,0%);fill-opacity:1;stroke:none;"/>
</g>
</g>
<path style=" stroke:none;fill-rule:nonzero;fill:rgb(100%,100%,100%);fill-opacity:1;" d="M 8.578125 21.582031 C 7.621094 21.582031 6.777344 21.382812 6.046875 20.980469 C 5.316406 20.574219 4.75 20.003906 4.34375 19.277344 C 3.941406 18.542969 3.738281 17.691406 3.738281 16.722656 L 3.738281 13.464844 C 3.738281 12.5 3.941406 11.652344 4.34375 10.921875 C 4.75 10.191406 5.316406 9.621094 6.046875 9.21875 C 6.777344 8.8125 7.621094 8.609375 8.578125 8.609375 L 10.5 8.609375 C 11.453125 8.609375 12.296875 8.8125 13.027344 9.21875 C 13.757812 9.621094 14.324219 10.191406 14.730469 10.921875 C 15.136719 11.652344 15.339844 12.5 15.339844 13.464844 L 15.339844 16.722656 C 15.339844 17.691406 15.136719 18.542969 14.730469 19.277344 C 14.324219 20.003906 13.757812 20.574219 13.027344 20.980469 C 12.296875 21.382812 11.453125 21.582031 10.5 21.582031 Z M 10.5 19.371094 C 11.199219 19.371094 11.765625 19.117188 12.191406 18.609375 C 12.621094 18.101562 12.839844 17.441406 12.839844 16.621094 L 12.839844 13.574219 C 12.839844 12.753906 12.621094 12.089844 12.191406 11.582031 C 11.765625 11.074219 11.199219 10.816406 10.5 10.816406 L 8.578125 10.816406 C 7.875 10.816406 7.308594 11.074219 6.878906 11.582031 C 6.453125 12.089844 6.238281 12.753906 6.238281 13.574219 L 6.238281 16.621094 C 6.238281 17.441406 6.453125 18.101562 6.878906 18.609375 C 7.308594 19.117188 7.875 19.371094 8.578125 19.371094 Z M 10.5 19.371094 "/>
<path style=" stroke:none;fill-rule:nonzero;fill:rgb(100%,100%,100%);fill-opacity:1;" d="M 21.570312 21.582031 C 20.640625 21.582031 19.816406 21.382812 19.101562 20.984375 C 18.390625 20.585938 17.839844 20.019531 17.445312 19.292969 C 17.054688 18.558594 16.859375 17.714844 16.859375 16.761719 L 16.859375 13.425781 C 16.859375 12.472656 17.054688 11.628906 17.445312 10.902344 C 17.839844 10.167969 18.394531 9.605469 19.113281 9.207031 C 19.832031 8.808594 20.664062 8.609375 21.609375 8.609375 L 23.632812 8.609375 C 24.539062 8.609375 25.335938 8.792969 26.023438 9.15625 C 26.714844 9.519531 27.25 10.03125 27.628906 10.691406 C 28.011719 11.355469 28.203125 12.125 28.203125 12.996094 L 25.738281 12.996094 C 25.738281 12.34375 25.542969 11.816406 25.15625 11.417969 C 24.769531 11.019531 24.261719 10.816406 23.632812 10.816406 L 21.609375 10.816406 C 20.929688 10.816406 20.386719 11.070312 19.972656 11.574219 C 19.5625 12.074219 19.359375 12.726562 19.359375 13.535156 L 19.359375 16.65625 C 19.359375 17.464844 19.558594 18.121094 19.960938 18.621094 C 20.367188 19.121094 20.90625 19.371094 21.570312 19.371094 L 23.707031 19.371094 C 24.324219 19.371094 24.835938 19.148438 25.238281 18.703125 C 25.644531 18.253906 25.847656 17.699219 25.847656 17.035156 L 25.847656 16.636719 L 22.332031 16.636719 L 22.332031 14.464844 L 28.3125 14.464844 L 28.3125 17.035156 C 28.3125 17.917969 28.117188 18.703125 27.726562 19.390625 C 27.34375 20.078125 26.796875 20.617188 26.097656 21.003906 C 25.398438 21.390625 24.601562 21.582031 23.707031 21.582031 Z M 21.570312 21.582031 "/>
</g>
</svg>
